<svg width="776" height="116" viewBox="0 0 776 116" fill="none" xmlns="http://www.w3.org/2000/svg">
<path d="M195.35 104.656C188.038 102.42 182.149 99.5126 177.67 95.9278L185.429 77.7262C189.705 81.006 194.774 83.6421 200.642 85.6344C206.511 87.6267 212.325 88.616 218.098 88.616C224.665 88.616 229.51 87.5996 232.641 85.5598C235.772 83.5201 237.337 80.8095 237.337 77.4281C237.337 74.9411 236.415 72.881 234.579 71.2344C232.736 69.5944 230.377 68.2798 227.491 67.2837C224.604 66.2876 220.68 65.1965 215.706 64.0038C208.144 62.1132 201.984 60.2225 197.207 58.3319C192.436 56.4413 188.302 53.4122 184.826 49.2311C181.343 45.0568 179.608 39.4865 179.608 32.5203C179.608 26.4554 181.173 20.9597 184.304 16.0332C187.435 11.1135 192.138 7.21018 198.399 4.3234C204.667 1.44339 212.318 0 221.372 0C227.735 0 233.928 0.799638 239.946 2.38533C245.963 3.97781 251.256 6.26148 255.837 9.24991L248.823 27.6006C239.675 22.132 230.472 19.3943 221.222 19.3943C214.758 19.3943 210.007 20.492 206.978 22.6741C203.942 24.8629 202.431 27.7497 202.431 31.3277C202.431 34.9056 204.193 37.5688 207.73 39.3104C211.261 41.0519 216.655 42.7663 223.913 44.4537C231.468 46.3443 237.662 48.235 242.487 50.1256C247.312 52.0162 251.459 54.9979 254.942 59.0773C258.425 63.1567 260.167 68.6796 260.167 75.6391C260.167 81.6091 258.574 87.0506 255.396 91.9772C252.211 96.8969 247.461 100.807 241.152 103.687C234.836 106.567 227.104 108.01 217.956 108.01C210.19 108.01 202.655 106.892 195.35 104.656Z" fill="#0C162E"/>
<path d="M284.108 103.24C281.323 100.455 279.934 96.9715 279.934 92.7972C279.934 88.5213 281.323 85.0653 284.108 82.4293C286.893 79.7932 290.322 78.4785 294.402 78.4785C298.481 78.4785 301.91 79.8 304.695 82.4293C307.48 85.0653 308.87 88.5213 308.87 92.7972C308.87 96.9715 307.474 100.455 304.695 103.24C301.91 106.025 298.481 107.414 294.402 107.414C290.322 107.414 286.893 106.025 284.108 103.24Z" fill="#0C162E"/>
<path d="M344.602 101.078C336.443 96.4564 330.032 90.0391 325.356 81.8328C320.681 73.6265 318.343 64.3562 318.343 54.0085C318.343 43.6676 320.681 34.3906 325.356 26.1843C330.032 17.978 336.47 11.5674 344.676 6.93911C352.882 2.31755 362.058 0 372.202 0C380.754 0 388.54 1.5925 395.547 4.77067C402.561 7.95561 408.402 12.5297 413.078 18.493L398.312 32.8117C391.549 24.6596 383.248 20.5802 373.402 20.5802C367.235 20.5802 361.739 21.9965 356.914 24.829C352.09 27.6616 348.336 31.6191 345.652 36.6879C342.969 41.7567 341.627 47.5302 341.627 53.995C341.627 60.4597 342.969 66.2265 345.652 71.3021C348.336 76.3709 352.09 80.3284 356.914 83.161C361.739 85.9935 367.228 87.4098 373.402 87.4098C383.248 87.4098 391.549 83.2829 398.312 75.0292L413.078 89.3479C408.402 95.4128 402.561 100.041 395.547 103.219C388.534 106.397 380.707 107.99 372.053 107.99C361.902 108.01 352.754 105.7 344.602 101.078Z" fill="#0C162E"/>
<path d="M453.277 83.8445L444.474 106.22H420.905L465.21 1.79492H487.884L532.189 106.22H508.173L499.37 83.8445H453.277ZM476.398 25.5194L460.588 65.5006H492.065L476.398 25.5194Z" fill="#0C162E"/>
<path d="M638.329 43.5652L609.088 95.1816H598.794L569.703 44.9069V106.22H548.222V1.79492H567.169L604.311 66.6865L640.856 1.79492H659.803L659.952 106.22H638.471L638.329 43.5652Z" fill="#0C162E"/>
<path d="M754.905 6.42323C761.37 9.50653 766.364 13.8841 769.894 19.5493C773.425 25.2212 775.187 31.9299 775.187 39.6889C775.187 47.3464 773.418 54.0347 769.894 59.7541C766.364 65.4734 761.363 69.8511 754.905 72.8802C748.44 75.9161 740.83 77.4272 732.082 77.4272H712.091V106.22H689.119V1.79492H732.082C740.83 1.8017 748.44 3.33993 754.905 6.42323ZM746.556 53.0387C750.134 49.9079 751.923 45.4557 751.923 39.6889C751.923 33.9222 750.134 29.4497 746.556 26.2648C742.978 23.0798 737.706 21.4941 730.747 21.4941H712.098V57.7415H730.747C737.699 57.7415 742.971 56.1762 746.556 53.0387Z" fill="#0C162E"/>
<path d="M58.6224 61.5851H144.338V4.67627H58.6224C42.9077 4.67627 30.168 17.416 30.168 33.1307C30.168 48.8454 42.9077 61.5851 58.6224 61.5851Z" fill="#7B00FF"/>
<path d="M85.7157 115.736H0V58.8267H85.7157C101.43 58.8267 114.17 71.5665 114.17 87.2812C114.17 102.996 101.43 115.736 85.7157 115.736Z" fill="#7B00FF"/>
</svg>
